<svg id="vector" xmlns="http://www.w3.org/2000/svg" width="82" height="80" viewBox="0 0 82 80"><path fill="#2C7935" d="M60.679,9.432C61.009,9.433 61.339,9.432 61.669,9.432C61.879,9.432 62.089,9.432 62.299,9.432C62.398,9.432 62.497,9.432 62.599,9.431C63.286,9.434 63.286,9.434 63.43,9.578C63.487,10.634 63.319,11.657 63.156,12.696C63.134,12.835 63.134,12.835 63.112,12.977C62.297,18.232 61.268,23.334 57.758,27.496C57.692,27.578 57.626,27.66 57.558,27.744C55.133,30.698 51.564,32.098 47.996,33.075C45.072,33.769 45.072,33.769 43.034,35.823C41.545,38.667 40.847,41.771 40.293,44.912C40.25,45.155 40.205,45.396 40.159,45.638C39.984,46.556 39.866,47.474 39.767,48.403C39.742,48.638 39.742,48.638 39.717,48.878C39.489,51.114 39.426,53.352 39.453,55.598C39.528,55.457 39.603,55.317 39.681,55.172C39.787,54.975 39.894,54.779 40.001,54.583C40.058,54.478 40.114,54.373 40.173,54.264C40.475,53.718 40.787,53.201 41.163,52.702C42.206,51.311 42.459,50.283 42.527,48.561C42.713,45.707 44.685,43.007 46.686,41.098C50.154,38.079 54.285,36.92 58.821,37.181C60.615,37.315 62.567,37.692 64.203,38.453C64.138,39.297 63.837,39.989 63.494,40.757C63.436,40.889 63.378,41.02 63.318,41.155C62.127,43.812 60.701,46.156 58.66,48.25C58.586,48.332 58.511,48.415 58.435,48.5C55.587,51.575 51.334,52.572 47.328,52.846C44.862,52.963 44.862,52.963 42.805,54.18C41.337,55.912 40.606,58.056 40.251,60.263C40.233,60.368 40.216,60.474 40.197,60.583C40.018,61.808 40.227,62.961 40.484,64.162C40.511,64.287 40.538,64.412 40.565,64.542C40.838,65.749 41.228,66.911 41.651,68.073C41.943,68.893 42.12,69.55 42.031,70.422C41.807,70.851 41.506,71.124 41.089,71.373C40.366,71.541 39.911,71.546 39.244,71.236C37.18,69.522 36.912,65.02 36.617,62.559C36.602,62.439 36.587,62.32 36.571,62.197C36.029,57.731 36.183,53.01 36.78,48.56C37.15,45.791 36.917,42.344 35.243,39.957C35.158,39.851 35.158,39.851 35.07,39.742C35.015,39.673 34.959,39.603 34.902,39.531C33.945,38.545 32.253,38.358 30.967,38.043C27.988,37.315 25.203,36.337 22.824,34.328C22.695,34.22 22.565,34.111 22.432,33.999C18.173,30.322 16.327,24.179 15.894,18.757C15.841,17.934 15.812,17.104 15.863,16.281C16.171,15.974 16.943,16.121 17.354,16.12C21.009,16.126 24.574,16.818 27.851,18.473C27.981,18.536 28.111,18.599 28.245,18.664C32.058,20.623 35.225,24.212 36.617,28.27C37.41,30.85 37.475,33.068 37.049,35.716C36.991,36.085 36.941,36.454 36.899,36.826C36.888,36.925 36.876,37.024 36.864,37.127C36.894,37.952 37.37,38.729 37.721,39.46C37.774,39.572 37.827,39.685 37.882,39.8C38.1,40.321 38.1,40.321 38.422,40.773C38.455,40.683 38.489,40.593 38.523,40.499C39.841,36.973 41.495,33.682 43.449,30.461C43.508,30.363 43.567,30.264 43.628,30.163C45.653,26.806 48.1,23.816 50.781,20.966C51.603,20.243 51.603,20.243 52.086,19.375C51.14,20.181 50.198,20.988 49.278,21.824C49.02,22.057 48.757,22.283 48.493,22.509C47.423,23.442 46.418,24.47 45.512,25.563C45.454,25.632 45.396,25.701 45.336,25.772C43.124,28.415 41.639,30.9 40.613,34.199C40.528,34.199 40.443,34.199 40.355,34.199C40.247,33.58 40.139,32.961 40.032,32.342C39.996,32.132 39.959,31.922 39.922,31.712C39.027,26.6 39.756,21.976 42.775,17.659C46.139,13.047 51.075,10.576 56.608,9.635C57.961,9.432 59.314,9.429 60.679,9.432Z" id="path_0"/><path fill="#314449" d="M79.93,57.918C80.564,58.223 80.885,58.594 81.219,59.207C81.291,59.605 81.289,59.996 81.285,60.4C81.286,60.518 81.287,60.636 81.288,60.757C81.29,61.145 81.289,61.533 81.287,61.922C81.288,62.193 81.288,62.465 81.289,62.737C81.289,63.307 81.288,63.876 81.286,64.446C81.283,65.172 81.285,65.897 81.288,66.623C81.29,67.185 81.289,67.746 81.288,68.308C81.287,68.575 81.288,68.842 81.289,69.109C81.3,72.111 80.703,74.654 78.512,76.867C76.612,78.556 74.357,79.334 71.846,79.337C71.739,79.338 71.632,79.339 71.522,79.339C71.171,79.341 70.821,79.342 70.47,79.343C70.29,79.343 70.29,79.343 70.105,79.344C69.469,79.346 68.833,79.347 68.197,79.347C67.541,79.348 66.885,79.351 66.229,79.355C65.723,79.357 65.217,79.358 64.712,79.358C64.47,79.358 64.228,79.359 63.986,79.361C63.648,79.363 63.31,79.363 62.972,79.362C62.873,79.364 62.773,79.365 62.671,79.366C62.054,79.361 61.633,79.257 61.109,78.93C60.536,78.295 60.418,77.904 60.429,77.066C60.499,76.422 60.833,76.085 61.317,75.69C61.863,75.389 62.246,75.378 62.856,75.387C62.965,75.386 63.072,75.386 63.184,75.385C63.418,75.385 63.652,75.385 63.885,75.387C64.257,75.389 64.628,75.388 65,75.386C65.923,75.382 66.846,75.384 67.769,75.385C68.549,75.386 69.328,75.385 70.108,75.382C70.471,75.381 70.835,75.383 71.198,75.385C73.063,75.385 74.638,75.187 76.021,73.817C77.006,72.744 77.242,71.687 77.241,70.268C77.241,70.15 77.242,70.032 77.242,69.91C77.243,69.653 77.244,69.397 77.244,69.141C77.245,68.735 77.247,68.329 77.25,67.923C77.257,66.77 77.263,65.616 77.265,64.462C77.266,63.756 77.27,63.05 77.275,62.344C77.277,62.075 77.277,61.806 77.277,61.537C77.277,61.161 77.28,60.785 77.283,60.409C77.282,60.298 77.282,60.187 77.281,60.073C77.291,59.379 77.409,58.986 77.867,58.434C78.504,57.858 79.106,57.786 79.93,57.918Z" id="path_1"/><path fill="#304348" d="M3.516,58.045C4.005,58.331 4.318,58.537 4.519,59.078C4.545,59.456 4.556,59.822 4.554,60.201C4.555,60.314 4.556,60.427 4.557,60.544C4.558,60.79 4.559,61.036 4.559,61.282C4.559,61.672 4.561,62.062 4.564,62.453C4.571,63.563 4.575,64.672 4.578,65.782C4.58,66.462 4.584,67.141 4.589,67.82C4.591,68.078 4.592,68.336 4.592,68.593C4.572,71.144 4.572,71.144 5.64,73.407C5.809,73.645 5.809,73.645 5.937,74.031C6.177,74.171 6.177,74.171 6.453,74.289C6.61,74.393 6.765,74.497 6.92,74.603C8.22,75.4 9.531,75.376 11.011,75.373C11.388,75.373 11.765,75.374 12.142,75.377C13.078,75.382 14.014,75.384 14.95,75.385C15.743,75.387 16.536,75.39 17.33,75.395C17.701,75.397 18.071,75.396 18.442,75.396C18.67,75.397 18.898,75.398 19.126,75.4C19.279,75.398 19.279,75.398 19.436,75.397C20.058,75.404 20.479,75.496 21.02,75.836C21.593,76.471 21.709,76.861 21.701,77.7C21.634,78.296 21.321,78.644 20.891,79.034C20.316,79.376 19.711,79.336 19.06,79.337C18.954,79.338 18.847,79.339 18.737,79.339C18.385,79.341 18.034,79.342 17.681,79.343C17.435,79.343 17.189,79.344 16.943,79.345C16.427,79.346 15.91,79.347 15.393,79.347C14.736,79.348 14.078,79.351 13.421,79.355C12.912,79.357 12.403,79.358 11.894,79.358C11.652,79.358 11.41,79.359 11.168,79.361C8.485,79.379 6.351,78.989 4.133,77.383C4.048,77.322 3.963,77.261 3.875,77.199C2.259,75.934 1.183,73.829 0.843,71.83C0.774,71.261 0.76,70.708 0.758,70.136C0.758,70.02 0.757,69.904 0.756,69.785C0.753,69.405 0.752,69.025 0.751,68.645C0.75,68.515 0.749,68.385 0.749,68.251C0.746,67.562 0.744,66.873 0.743,66.184C0.742,65.473 0.737,64.763 0.732,64.052C0.729,63.505 0.728,62.957 0.727,62.41C0.727,62.148 0.725,61.886 0.723,61.624C0.72,61.257 0.72,60.891 0.721,60.525C0.719,60.417 0.717,60.31 0.716,60.199C0.722,59.464 0.88,59.041 1.297,58.434C1.907,57.854 2.747,57.702 3.516,58.045Z" id="path_2"/><path fill="#314449" d="M62.886,0.617C63.053,0.616 63.053,0.616 63.223,0.614C63.59,0.612 63.956,0.613 64.323,0.615C64.58,0.615 64.837,0.614 65.094,0.614C65.633,0.613 66.172,0.614 66.711,0.616C67.396,0.619 68.081,0.618 68.767,0.615C69.298,0.613 69.829,0.613 70.361,0.615C70.613,0.615 70.865,0.615 71.118,0.613C74.058,0.602 76.669,1.203 78.84,3.322C79.724,4.254 80.404,5.405 80.832,6.613C80.864,6.696 80.895,6.778 80.928,6.863C81.354,8.149 81.277,9.484 81.275,10.821C81.275,11.092 81.276,11.363 81.277,11.633C81.278,12.198 81.277,12.763 81.276,13.328C81.275,14.051 81.277,14.774 81.281,15.497C81.284,16.055 81.283,16.613 81.283,17.171C81.283,17.438 81.284,17.704 81.285,17.971C81.287,18.343 81.286,18.715 81.283,19.088C81.285,19.252 81.285,19.252 81.287,19.42C81.279,20.111 81.157,20.499 80.703,21.051C80.172,21.548 79.604,21.583 78.898,21.566C78.217,21.348 77.89,20.968 77.48,20.406C77.315,19.91 77.334,19.441 77.335,18.923C77.335,18.755 77.335,18.755 77.335,18.584C77.334,18.34 77.334,18.097 77.334,17.854C77.333,17.334 77.33,16.815 77.328,16.296C77.323,15.329 77.319,14.363 77.319,13.396C77.319,12.724 77.316,12.051 77.311,11.379C77.31,11.124 77.31,10.868 77.311,10.613C77.317,8.829 77.225,7.285 75.918,5.927C74.505,4.662 72.924,4.624 71.118,4.627C70.741,4.627 70.364,4.626 69.987,4.623C69.051,4.618 68.115,4.616 67.179,4.615C66.386,4.613 65.592,4.61 64.799,4.605C64.428,4.603 64.057,4.604 63.687,4.604C63.459,4.603 63.231,4.602 63.003,4.6C62.85,4.602 62.85,4.602 62.693,4.603C62.071,4.596 61.649,4.504 61.109,4.164C60.536,3.529 60.418,3.139 60.429,2.3C60.499,1.657 60.833,1.32 61.316,0.924C61.869,0.621 62.266,0.611 62.886,0.617Z" id="path_3"/><path fill="#314349" d="M9.536,0.663C9.651,0.662 9.765,0.662 9.883,0.661C10.261,0.659 10.639,0.658 11.017,0.657C11.28,0.657 11.543,0.656 11.806,0.655C12.357,0.654 12.908,0.653 13.46,0.653C14.165,0.652 14.871,0.649 15.577,0.645C16.121,0.643 16.664,0.642 17.207,0.642C17.467,0.641 17.728,0.64 17.988,0.639C18.352,0.637 18.716,0.637 19.08,0.638C19.187,0.636 19.294,0.635 19.404,0.634C20.038,0.639 20.47,0.721 21.02,1.07C21.593,1.705 21.709,2.095 21.701,2.934C21.634,3.533 21.321,3.883 20.883,4.269C20.327,4.609 19.777,4.569 19.148,4.569C18.98,4.57 18.98,4.57 18.808,4.57C18.564,4.571 18.32,4.572 18.076,4.573C17.689,4.573 17.302,4.575 16.915,4.578C15.814,4.585 14.714,4.591 13.613,4.593C12.94,4.594 12.267,4.598 11.593,4.603C11.338,4.605 11.082,4.606 10.826,4.605C8.999,4.604 7.541,4.694 6.096,5.935C4.64,7.413 4.593,9.26 4.599,11.212C4.601,11.594 4.599,11.975 4.597,12.357C4.592,13.441 4.592,14.524 4.592,15.608C4.592,16.273 4.59,16.938 4.586,17.604C4.584,17.979 4.586,18.354 4.588,18.73C4.587,18.96 4.585,19.19 4.584,19.42C4.585,19.523 4.586,19.627 4.588,19.735C4.581,20.216 4.54,20.502 4.28,20.913C3.813,21.365 3.363,21.586 2.715,21.623C2.167,21.6 1.847,21.405 1.426,21.051C0.801,20.358 0.761,19.819 0.758,18.916C0.758,18.803 0.757,18.69 0.756,18.574C0.753,18.199 0.752,17.825 0.751,17.451C0.75,17.323 0.749,17.194 0.749,17.062C0.746,16.382 0.744,15.703 0.743,15.023C0.742,14.324 0.737,13.626 0.732,12.927C0.729,12.387 0.728,11.847 0.727,11.307C0.727,11.05 0.725,10.793 0.723,10.535C0.699,7.82 1.247,5.603 3.102,3.52C3.179,3.429 3.257,3.339 3.338,3.247C4.929,1.525 7.226,0.666 9.536,0.663Z" id="path_4"/><path fill="#F3F8F4" d="M25.66,25.305C26.004,25.468 26.309,25.645 26.614,25.872C26.696,25.933 26.778,25.993 26.862,26.056C28.589,27.359 30.161,28.751 31.695,30.276C31.764,30.344 31.833,30.413 31.904,30.483C32.806,31.378 33.64,32.296 34.426,33.297C34.518,33.412 34.61,33.527 34.704,33.646C35.549,34.718 36.425,36.173 36.617,37.551C36.154,37.098 35.721,36.629 35.304,36.133C35.242,36.06 35.181,35.987 35.117,35.912C34.652,35.356 34.208,34.788 33.77,34.211C33.329,33.633 32.877,33.064 32.42,32.499C32.354,32.418 32.289,32.337 32.222,32.254C31.302,31.122 30.309,30.064 29.273,29.038C29.169,28.935 29.065,28.831 28.957,28.724C28.629,28.398 28.301,28.072 27.972,27.746C27.535,27.312 27.099,26.878 26.663,26.444C26.562,26.345 26.461,26.245 26.358,26.142C26.266,26.051 26.174,25.96 26.08,25.866C25.998,25.785 25.917,25.705 25.833,25.622C25.66,25.434 25.66,25.434 25.66,25.305Z" id="path_5"/><path fill="#F3F7F4" d="M54.148,43.223C54.276,43.286 54.276,43.286 54.406,43.352C54.311,43.407 54.216,43.463 54.117,43.52C51.382,45.123 48.795,46.821 46.256,48.723C45.992,48.92 45.728,49.117 45.463,49.313C45.386,49.372 45.309,49.43 45.229,49.491C44.823,49.792 44.444,50.022 43.965,50.184C45.632,47.303 49.479,45.493 52.368,44.11C52.602,43.996 52.833,43.877 53.064,43.757C53.274,43.648 53.274,43.648 53.488,43.537C53.61,43.473 53.732,43.409 53.857,43.343C53.953,43.303 54.049,43.264 54.148,43.223Z" id="path_6"/><path fill="#F1F6F2" d="M54.148,43.223C54.234,43.265 54.319,43.308 54.406,43.352C54.258,43.439 54.258,43.439 54.107,43.529C53.735,43.749 53.362,43.97 52.99,44.19C52.83,44.285 52.67,44.38 52.51,44.474C51.55,45.043 50.592,45.612 49.637,46.188C49.742,45.691 49.887,45.488 50.281,45.156C50.572,44.981 50.858,44.82 51.159,44.665C51.243,44.621 51.327,44.577 51.413,44.532C52.033,44.212 52.657,43.902 53.286,43.601C53.369,43.561 53.451,43.521 53.536,43.48C53.737,43.386 53.942,43.303 54.148,43.223Z" id="path_7"/><path fill="#28722E" d="M41.645,30.59C41.792,31.031 41.758,31.107 41.598,31.523C41.558,31.629 41.518,31.734 41.477,31.843C41.434,31.954 41.391,32.064 41.347,32.177C41.264,32.394 41.181,32.611 41.098,32.828C41.039,32.982 41.039,32.982 40.979,33.139C40.847,33.489 40.728,33.843 40.613,34.199C40.528,34.199 40.443,34.199 40.355,34.199C40.249,33.477 40.218,32.856 40.355,32.137C40.483,32.328 40.483,32.328 40.613,32.523C40.741,32.523 40.868,32.523 41,32.523C41.011,32.42 41.021,32.316 41.032,32.209C41.155,31.626 41.389,31.125 41.645,30.59Z" id="path_8"/><path fill="#DCEADF" d="M54.406,43.352C53.47,43.905 52.535,44.458 51.57,45.027C51.528,44.942 51.485,44.857 51.441,44.77C51.897,44.23 52.44,43.986 53.069,43.698C53.169,43.65 53.269,43.602 53.372,43.553C54.115,43.206 54.115,43.206 54.406,43.352Z" id="path_9"/><path fill="#EBF2EC" d="M52.215,19.117C52.3,19.16 52.385,19.202 52.473,19.246C52.406,19.312 52.339,19.377 52.27,19.444C51.748,19.96 51.255,20.478 50.797,21.051C50.712,20.881 50.627,20.711 50.539,20.535C51.092,20.067 51.645,19.599 52.215,19.117Z" id="path_10"/><path fill="#236F26" d="M52.988,10.738C52.903,10.738 52.818,10.738 52.73,10.738C52.73,10.823 52.73,10.908 52.73,10.996C52.543,11.043 52.355,11.088 52.167,11.133C52.009,11.171 52.009,11.171 51.849,11.21C51.57,11.254 51.57,11.254 51.313,11.125C51.494,11.035 51.677,10.946 51.86,10.859C51.962,10.81 52.064,10.76 52.168,10.71C52.506,10.598 52.659,10.618 52.988,10.738Z" id="path_11"/><path fill="#394B51" d="M2.199,57.918C2.54,57.918 2.88,57.918 3.23,57.918C3.273,58.046 3.316,58.173 3.359,58.305C2.934,58.305 2.509,58.305 2.07,58.305C2.113,58.177 2.155,58.049 2.199,57.918ZM1.813,58.305C2.07,58.434 2.07,58.434 2.07,58.434L1.813,58.305Z" id="path_12"/><path fill="#18621C" d="M40.742,32.91C40.931,33.402 40.798,33.721 40.613,34.199C40.528,34.199 40.443,34.199 40.355,34.199C40.355,33.859 40.355,33.519 40.355,33.168C40.44,33.168 40.526,33.168 40.613,33.168C40.656,33.083 40.698,32.998 40.742,32.91Z" id="path_13"/><path fill="#17621D" d="M46.93,25.434C47.059,25.691 47.059,25.691 46.978,25.941C46.755,26.275 46.508,26.409 46.156,26.594C46.353,26.151 46.62,25.805 46.93,25.434Z" id="path_14"/></svg>